<svg width="40" height="40" viewBox="0 0 40 40" fill="none" xmlns="http://www.w3.org/2000/svg">
<circle cx="20" cy="20" r="20" fill="#EE171F"/>
<path d="M17.0587 9.41174C19.0868 9.41174 21.0319 10.2174 22.466 11.6515C23.9001 13.0856 24.7057 15.0307 24.7057 17.0588C24.7057 18.9529 24.0116 20.6941 22.8704 22.0353L23.1881 22.3529H24.1175L29.9999 28.2353L28.2352 30L22.3528 24.1176V23.1882L22.0352 22.8706C20.694 24.0117 18.9528 24.7059 17.0587 24.7059C15.0306 24.7059 13.0855 23.9002 11.6514 22.4661C10.2173 21.032 9.41162 19.0869 9.41162 17.0588C9.41162 15.0307 10.2173 13.0856 11.6514 11.6515C13.0855 10.2174 15.0306 9.41174 17.0587 9.41174ZM17.0587 11.7647C14.1175 11.7647 11.7646 14.1176 11.7646 17.0588C11.7646 20 14.1175 22.3529 17.0587 22.3529C19.9999 22.3529 22.3528 20 22.3528 17.0588C22.3528 14.1176 19.9999 11.7647 17.0587 11.7647Z" fill="white"/>
</svg>
